<svg xmlns="http://www.w3.org/2000/svg" width="152.356" height="188.781" viewBox="0 0 152.356 188.781">
    <defs>
        <clipPath id="clip-path">
            <path id="Tracé_12" data-name="Tracé 12" d="M1900.151,466.02c-1.648,0-2.968-1.114-3.64-3.147q-1.231-3.719-2.453-7.442-1.511-4.594-3.03-9.185-2.55-7.678-5.113-15.352l-1.625-4.872,2.709-.9,1.625,4.872q2.559,7.677,5.114,15.356,1.525,4.594,3.033,9.193,1.224,3.719,2.451,7.436c.453,1.369.922,1.235,1.3,1.127a3.668,3.668,0,0,0,1.79-1.217c3.811-5.319,7.627-10.775,11.317-16.052l2.926-4.18c1.993-2.845,3.9-3.453,7.278-2.32q6.236,2.09,12.484,4.148,5.564,1.84,11.123,3.692a1.939,1.939,0,0,0,2.123-.5c.192-.175.374-.341-.011-1.5q-3.788-11.4-7.564-22.8-2.589-7.809-5.18-15.618c-.486-1.463-.988-2.92-1.469-4.311-.215-.623-.426-1.234-.628-1.825l2.7-.925c.2.589.412,1.2.626,1.818.483,1.4.99,2.87,1.48,4.344q2.592,7.809,5.18,15.619,3.779,11.4,7.564,22.8a3.97,3.97,0,0,1-.775,4.512,4.773,4.773,0,0,1-4.953,1.1q-5.553-1.855-11.114-3.689-6.25-2.068-12.494-4.151c-2.2-.737-2.762-.562-4.031,1.25l-2.924,4.178c-3.695,5.283-7.515,10.746-11.336,16.078a6.446,6.446,0,0,1-3.324,2.3A4.187,4.187,0,0,1,1900.151,466.02Z" transform="translate(-1884.29 -399.692)" fill="#fff"/>
        </clipPath>
        <clipPath id="clip-path-2">
            <path id="Tracé_15" data-name="Tracé 15" d="M1776.5,465.968a4.762,4.762,0,0,1-4.011-2.2q-2.153-3.072-4.311-6.142c-3.2-4.55-6.5-9.254-9.73-13.9-1.681-2.416-1.859-2.472-4.781-1.485-5.728,1.934-11.569,3.834-17.218,5.67q-3.074,1-6.146,2a4.666,4.666,0,0,1-4.822-1.175,4.058,4.058,0,0,1-.739-4.507l.905-2.688c2.981-8.854,6.065-18.009,9.074-27.021,1.072-3.21,2.137-6.487,3.167-9.655q.748-2.3,1.5-4.6c.063-.192.133-.381.187-.522l.038-.1,2.683.981-.048.128c-.041.109-.1.253-.144.4q-.751,2.3-1.5,4.6c-1.031,3.173-2.1,6.455-3.173,9.677-3.011,9.015-6.095,18.172-9.077,27.027l-.905,2.688c-.389,1.156-.192,1.342,0,1.522a1.793,1.793,0,0,0,1.969.532q3.073-1,6.15-2c5.641-1.834,11.475-3.731,17.187-5.66,4.123-1.392,5.624-.913,8.041,2.56,3.226,4.637,6.529,9.339,9.722,13.887q2.157,3.072,4.313,6.144a1.924,1.924,0,0,0,1.954.966c.441-.047.661-.188,1.065-1.411q3.394-10.253,6.8-20.5,2.048-6.164,4.094-12.328c.415-1.25.827-2.5,1.241-3.761l2.714.892c-.415,1.263-.828,2.516-1.244,3.768q-2.046,6.165-4.094,12.33-3.405,10.248-6.8,20.5c-.332,1-1.023,3.09-3.473,3.353A5.491,5.491,0,0,1,1776.5,465.968Z" transform="translate(-1724.372 -399.648)" fill="#fff"/>
        </clipPath>
    </defs>
    <g id="Logo_icon" transform="translate(-1716.5 -142.5)">
        <path id="Tracé_9" data-name="Tracé 9" d="M1792.678,294.856a76.178,76.178,0,1,1,76.178-76.178A76.264,76.264,0,0,1,1792.678,294.856Zm0-145.214a69.036,69.036,0,1,0,69.036,69.036A69.115,69.115,0,0,0,1792.678,149.642Z" fill="#fff"/>
        <g id="Groupe_4" data-name="Groupe 4" transform="translate(1796.387 264.952)">
            <path id="Tracé_10" data-name="Tracé 10" d="M1900.151,466.02c-1.648,0-2.968-1.114-3.64-3.147q-1.231-3.719-2.453-7.442-1.511-4.594-3.03-9.185-2.55-7.678-5.113-15.352l-1.625-4.872,2.709-.9,1.625,4.872q2.559,7.677,5.114,15.356,1.525,4.594,3.033,9.193,1.224,3.719,2.451,7.436c.453,1.369.922,1.235,1.3,1.127a3.668,3.668,0,0,0,1.79-1.217c3.811-5.319,7.627-10.775,11.317-16.052l2.926-4.18c1.993-2.845,3.9-3.453,7.278-2.32q6.236,2.09,12.484,4.148,5.564,1.84,11.123,3.692a1.939,1.939,0,0,0,2.123-.5c.192-.175.374-.341-.011-1.5q-3.788-11.4-7.564-22.8-2.589-7.809-5.18-15.618c-.486-1.463-.988-2.92-1.469-4.311-.215-.623-.426-1.234-.628-1.825l2.7-.925c.2.589.412,1.2.626,1.818.483,1.4.99,2.87,1.48,4.344q2.592,7.809,5.18,15.619,3.779,11.4,7.564,22.8a3.97,3.97,0,0,1-.775,4.512,4.773,4.773,0,0,1-4.953,1.1q-5.553-1.855-11.114-3.689-6.25-2.068-12.494-4.151c-2.2-.737-2.762-.562-4.031,1.25l-2.924,4.178c-3.695,5.283-7.515,10.746-11.336,16.078a6.446,6.446,0,0,1-3.324,2.3A4.187,4.187,0,0,1,1900.151,466.02Z" transform="translate(-1884.29 -399.692)" fill="#fff"/>
            <g id="Groupe_3" data-name="Groupe 3" clip-path="url(#clip-path)">
                <path id="Tracé_11" data-name="Tracé 11" d="M1867.735,323.43H1700.909V127.521h166.826Zm-163.969-2.857h161.112v-190.2H1703.766Z" transform="translate(-1788.219 -257.105)" fill="#fff"/>
            </g>
        </g>
        <g id="Groupe_6" data-name="Groupe 6" transform="translate(1720.248 264.931)">
            <path id="Tracé_13" data-name="Tracé 13" d="M1776.5,465.968a4.762,4.762,0,0,1-4.011-2.2q-2.153-3.072-4.311-6.142c-3.2-4.55-6.5-9.254-9.73-13.9-1.681-2.416-1.859-2.472-4.781-1.485-5.728,1.934-11.569,3.834-17.218,5.67q-3.074,1-6.146,2a4.666,4.666,0,0,1-4.822-1.175,4.058,4.058,0,0,1-.739-4.507l.905-2.688c2.981-8.854,6.065-18.009,9.074-27.021,1.072-3.21,2.137-6.487,3.167-9.655q.748-2.3,1.5-4.6c.063-.192.133-.381.187-.522l.038-.1,2.683.981-.048.128c-.041.109-.1.253-.144.4q-.751,2.3-1.5,4.6c-1.031,3.173-2.1,6.455-3.173,9.677-3.011,9.015-6.095,18.172-9.077,27.027l-.905,2.688c-.389,1.156-.192,1.342,0,1.522a1.793,1.793,0,0,0,1.969.532q3.073-1,6.15-2c5.641-1.834,11.475-3.731,17.187-5.66,4.123-1.392,5.624-.913,8.041,2.56,3.226,4.637,6.529,9.339,9.722,13.887q2.157,3.072,4.313,6.144a1.924,1.924,0,0,0,1.954.966c.441-.047.661-.188,1.065-1.411q3.394-10.253,6.8-20.5,2.048-6.164,4.094-12.328c.415-1.25.827-2.5,1.241-3.761l2.714.892c-.415,1.263-.828,2.516-1.244,3.768q-2.046,6.165-4.094,12.33-3.405,10.248-6.8,20.5c-.332,1-1.023,3.09-3.473,3.353A5.491,5.491,0,0,1,1776.5,465.968Z" transform="translate(-1724.372 -399.648)" fill="#fff"/>
            <g id="Groupe_5" data-name="Groupe 5" clip-path="url(#clip-path-2)">
                <path id="Tracé_14" data-name="Tracé 14" d="M1867.735,323.43H1700.909V127.521h166.826Zm-163.969-2.857h161.112v-190.2H1703.766Z" transform="translate(-1712.08 -257.084)" fill="#fff"/>
            </g>
        </g>
        <path id="Tracé_16" data-name="Tracé 16" d="M1828.4,283.759v19.759h-7.409V283.759a12.389,12.389,0,0,0-.167-2.033q-.025-.153-.054-.3a12.228,12.228,0,0,0-.528-1.908c-.035-.1-.07-.189-.107-.282h0q-.055-.14-.114-.279t-.12-.275a12.373,12.373,0,0,0-.936-1.7c-.055-.082-.11-.165-.166-.246q-.254-.367-.534-.714-.093-.115-.189-.229-.335-.4-.7-.763t-.763-.7c-.075-.064-.151-.127-.229-.189q-.346-.279-.713-.533c-.081-.056-.163-.112-.246-.167a12.385,12.385,0,0,0-1.7-.936q-.136-.062-.275-.12c-.092-.039-.185-.077-.279-.113h0q-.14-.056-.282-.108a12.292,12.292,0,0,0-1.908-.528c-.1-.019-.2-.038-.3-.054a12.363,12.363,0,0,0-14.383,12.183v19.759h-7.41V264h7.41v4.335a19.759,19.759,0,0,1,32.108,15.424Z" transform="translate(-37.92 -63.652)" fill="#fff"/>
        <path id="Tracé_17" data-name="Tracé 17" d="M1921.671,264v39.517h-7.41v-4.335a19.758,19.758,0,0,1-32.108-15.424V264h7.409v19.561a12.349,12.349,0,0,0,24.7,0V264Z" transform="translate(-86.784 -63.652)" fill="#fff"/>
    </g>
</svg>
