<svg xmlns="http://www.w3.org/2000/svg" width="366.32" height="54" viewBox="0 0 366.32 54">
    <g id="Logo_text" transform="translate(-3387.882 -1056.799)">
        <g id="Groupe_1" data-name="Groupe 1" transform="translate(3654.119 1056.799)">
            <path id="Tracé_1" data-name="Tracé 1" d="M3958.081,1091.615q4.215,4.216,4.217,12.131v22.562h-3.7v-22.266q0-6.507-3.292-9.912t-9.21-3.4q-6.806,0-10.726,4.068t-3.92,10.948v20.564h-3.7v-38.614h3.55v8.359a14.691,14.691,0,0,1,5.955-6.362,18.347,18.347,0,0,1,9.358-2.294Q3953.863,1087.4,3958.081,1091.615Z" transform="translate(-3927.752 -1072.308)" fill="#fff"/>
            <path id="Tracé_2" data-name="Tracé 2" d="M4027.188,1061.94a2.8,2.8,0,0,1-.888-2.108,3.031,3.031,0,0,1,3.033-3.033,2.992,2.992,0,0,1,2.145.85,2.806,2.806,0,0,1,.888,2.109,3.032,3.032,0,0,1-3.033,3.033A2.984,2.984,0,0,1,4027.188,1061.94Zm.3,10.245h3.7V1110.8h-3.7Z" transform="translate(-3977.701 -1056.799)" fill="#fff"/>
            <path id="Tracé_3" data-name="Tracé 3" d="M4091.01,1088l-17.457,38.614h-3.773L4052.4,1088h3.921l15.386,34.545L4087.238,1088Z" transform="translate(-3990.928 -1072.613)" fill="#fff"/>
        </g>
        <g id="Groupe_2" data-name="Groupe 2" transform="translate(3450.152 1063.259)">
            <path id="Tracé_4" data-name="Tracé 4" d="M3523.583,1123.089a18.1,18.1,0,0,1-6.916-6.99,21.522,21.522,0,0,1,0-20.195,18.114,18.114,0,0,1,6.916-6.99,20.642,20.642,0,0,1,19.751,0,18.132,18.132,0,0,1,6.917,6.99,21.526,21.526,0,0,1,0,20.195,18.119,18.119,0,0,1-6.917,6.99,20.649,20.649,0,0,1-19.751,0Zm17.828-2.885a14.88,14.88,0,0,0,5.548-5.77,18.5,18.5,0,0,0,0-16.866,14.891,14.891,0,0,0-5.548-5.77,16.3,16.3,0,0,0-15.9,0,14.866,14.866,0,0,0-5.548,5.77,18.495,18.495,0,0,0,0,16.866,14.855,14.855,0,0,0,5.548,5.77,16.3,16.3,0,0,0,15.9,0Z" transform="translate(-3514.151 -1078.261)" fill="#fff"/>
            <path id="Tracé_5" data-name="Tracé 5" d="M3628.322,1114.5a9.313,9.313,0,0,1-3.514,2.034,13.845,13.845,0,0,1-4.4.7q-5.031,0-7.767-2.774t-2.737-7.73v-25.225h-7.1v-3.181h7.1V1069.9h3.7v8.433h12.279v3.181H3613.6v24.855a8.155,8.155,0,0,0,1.812,5.733,6.946,6.946,0,0,0,5.363,1.96,8.582,8.582,0,0,0,5.991-2.145Z" transform="translate(-3559.083 -1069.898)" fill="#fff"/>
            <path id="Tracé_6" data-name="Tracé 6" d="M3700.838,1106.889h-33.213a16.123,16.123,0,0,0,2.293,8.026,14.666,14.666,0,0,0,5.807,5.437,17.455,17.455,0,0,0,8.248,1.923,17.66,17.66,0,0,0,6.991-1.368,13.629,13.629,0,0,0,5.363-4.031l2.145,2.441a16.467,16.467,0,0,1-6.325,4.661,22.029,22.029,0,0,1-18.53-.888,18.224,18.224,0,0,1-7.064-6.953A19.96,19.96,0,0,1,3664,1106a21,21,0,0,1,2.4-10.1,17.732,17.732,0,0,1,6.621-6.99,19.13,19.13,0,0,1,18.9-.037,17.63,17.63,0,0,1,6.584,6.917,20.792,20.792,0,0,1,2.4,10.06Zm-25.668-15.423a13.812,13.812,0,0,0-5.215,5.1A16.622,16.622,0,0,0,3667.7,1104h29.589a15.491,15.491,0,0,0-2.219-7.4,14.364,14.364,0,0,0-12.575-6.953A14.8,14.8,0,0,0,3675.17,1091.466Z" transform="translate(-3590.102 -1078.261)" fill="#fff"/>
        </g>
        <path id="Tracé_7" data-name="Tracé 7" d="M3440.156,1086.137v26.137h-9.8v-26.137a16.445,16.445,0,0,0-.22-2.69q-.033-.2-.072-.4a16.2,16.2,0,0,0-.7-2.524q-.068-.188-.142-.373h0q-.073-.185-.15-.368t-.159-.364a16.406,16.406,0,0,0-1.238-2.247c-.072-.109-.146-.218-.22-.325q-.337-.485-.706-.944c-.082-.1-.165-.2-.25-.3q-.443-.525-.928-1.01t-1.01-.929c-.1-.084-.2-.168-.3-.25q-.458-.37-.943-.706c-.107-.074-.217-.148-.325-.22a16.322,16.322,0,0,0-2.247-1.237c-.12-.055-.242-.108-.364-.16s-.245-.1-.369-.15h0c-.124-.049-.248-.1-.373-.142a16.235,16.235,0,0,0-2.524-.7c-.134-.025-.268-.049-.4-.072a16.35,16.35,0,0,0-19.026,16.115v26.137h-9.8V1060h9.8v5.734a26.137,26.137,0,0,1,42.473,20.4Z" transform="translate(0 -1.622)" fill="#fff"/>
        <path id="Tracé_8" data-name="Tracé 8" d="M3842.274,1060v52.274h-9.8v-5.734a26.137,26.137,0,0,1-42.473-20.4V1060h9.8v25.875a16.336,16.336,0,0,0,32.671,0V1060Z" transform="translate(-203.813 -1.622)" fill="#fff"/>
    </g>
</svg>